<svg xmlns="http://www.w3.org/2000/svg" viewBox="0 -0.5 16 8" shape-rendering="crispEdges">
<metadata>Made with Pixels to Svg https://codepen.io/shshaw/pen/XbxvNj</metadata>
<path stroke="#cbc4c4" d="M3 1h2M3 2h2M11 2h1M14 2h1M3 3h2M4 5h3M4 6h1M6 6h1M11 6h1M14 6h1" />
<path stroke="#e6dede" d="M5 1h2M6 2h1M12 2h2M5 3h2M11 3h4M11 4h4M11 5h4M5 6h1M7 6h1M12 6h2M5 7h1M7 7h1" />
<path stroke="#f8f2f2" d="M7 1h1M7 3h1" />
<path stroke="#aa9898" d="M5 2h1M7 2h1" />
<path stroke="#8c8484" d="M9 2h1M9 6h1" />
<path stroke="#b5abab" d="M10 2h1M9 3h2M4 4h3M9 4h2M9 5h2M10 6h1" />
</svg>